{"title":"Mastizaade (2016) - 1CD - DesiSCR-Rip - Hindi - x264 - MP3 - Maf","uid":13398904,"size":741180105,"categoryP":"video","categoryS":"movies","magnet":"?xt=urn:btih:37e6b1d0184f5f189ce7bd2c467917742d00f9fd&amp;dn=Mastizaade+%282016%29+-+1CD+-+DesiSCR-Rip+-+Hindi+-+x264+-+MP3+-+Maf&amp;tr=udp%3A%2F%2Ftracker.leechers-paradise.org%3A6969&amp;tr=udp%3A%2F%2Fzer0day.ch%3A1337&amp;tr=udp%3A%2F%2Fopen.demonii.com%3A1337&amp;tr=udp%3A%2F%2Ftracker.coppersurfer.tk%3A6969&amp;tr=udp%3A%2F%2Fexodus.desync.com%3A6969","seeders":10,"leechers":5,"uploader":"makintos13","files":3,"time":1454381883,"description":"screens:\r\n \nhttp://imgmak.com/Kfi\r\n \nhttp://imgmak.com/Kfj\r\n \nhttp://imgmak.com/Kfw\r\n \nhttp://imgmak.com/KfJ\r\n \nhttp://imgmak.com/KfW\r\n \nhttp://imgmak.com/Kfd\r\n \nhttp://imgmak.com/Kfs\r\n \nhttp://imgmak.com/Kf4\r\n\r\n\r\n\r\n\r\nGeneral\r\nUnique ID : 181893435754341616091758271522332191533 (0x88D766C6207B15609CE3FB125273AB2D)\r\nComplete name : Mastizaade (2016) - 1CD - DesiSCR-Rip - Hindi - x264 - MP3 - Mafiaking - M2Tv.mkv\r\nFormat : Matroska\r\nFormat version : Version 4 / Version 2\r\nFile size : 702 MiB\r\nDuration : 1h 46mn\r\nOverall bit rate : 922 Kbps\r\nMovie name : Mastizaade (2016) - 1CD - DesiSCR-Rip - Hindi - x264 - MP3 - Mafiaking - M2Tv\r\nEncoded date : UTC 2016-01-30 18:16:16\r\nWriting application : mkvmerge v7.9.0 ('Birds') 64bit\r\nWriting library : libebml v1.3.1 + libmatroska v1.4.2\r\n\r\nVideo\r\nID : 1\r\nFormat : AVC\r\nFormat/Info : Advanced Video Codec\r\nFormat profile :   \r\nFormat settings, CABAC : Yes\r\nFormat settings, ReFrames : 4 frames\r\nCodec ID : V_MPEG4/ISO/AVC\r\nDuration : 1h 46mn\r\nBit rate : 840 Kbps\r\nWidth : 640 pixels\r\nHeight : 288 pixels\r\nDisplay aspect ratio : 2.222\r\nFrame rate mode : Constant\r\nFrame rate : 29.970 fps\r\nColor space : YUV\r\nChroma subsampling : 4:2:0\r\nBit depth : 8 bits\r\nScan type : Progressive\r\nBits/(Pixel*Frame) : 0.152\r\nStream size : 627 MiB (89%)\r\nTitle : Mafiaking\r\nLanguage : Hindi\r\nDefault : Yes\r\nForced : No\r\n\r\nAudio\r\nID : 2\r\nFormat : MPEG Audio\r\nFormat version : Version 1\r\nFormat profile : Layer 3\r\nMode : Joint stereo\r\nMode extension : MS Stereo\r\nCodec ID : A_MPEG/L3\r\nCodec ID/Hint : MP3\r\nDuration : 1h 46mn\r\nBit rate mode : Constant\r\nBit rate : 80.0 Kbps\r\nChannel(s) : 2 channels\r\nSampling rate : 32.0 KHz\r\nCompression mode : Lossy\r\nStream size : 60.9 MiB (9%)\r\nTitle : Mafiaking\r\nWriting library : LAME3.99r\r\nLanguage : Hindi\r\nDefault : Yes\r\nForced : No","torrent":{"xt":"urn:btih:37e6b1d0184f5f189ce7bd2c467917742d00f9fd","amp;dn":"Mastizaade+%282016%29+-+1CD+-+DesiSCR-Rip+-+Hindi+-+x264+-+MP3+-+Maf","amp;tr":["udp%3A%2F%2Ftracker.leechers-paradise.org%3A6969","udp%3A%2F%2Fzer0day.ch%3A1337","udp%3A%2F%2Fopen.demonii.com%3A1337","udp%3A%2F%2Ftracker.coppersurfer.tk%3A6969","udp%3A%2F%2Fexodus.desync.com%3A6969"],"infoHash":"37e6b1d0184f5f189ce7bd2c467917742d00f9fd","infoHashBuffer":{"type":"Buffer","data":[55,230,177,208,24,79,95,24,156,231,189,44,70,121,23,116,45,0,249,253]},"announce":[],"urlList":[]}}